<?xml version="1.0" encoding="utf-8"?><svg width="112" height="112" xmlns="http://www.w3.org/2000/svg" viewBox="0 0 112 112"><path d="M87.17 57.328c0 2.004-1.608 3.372-3.5 3.5l-42.86-.003L63.039 82.96a3.5 3.5 0 01-4.546 5.299l-.393-.338L29.866 59.81a3.507 3.507 0 01-.862-1.404 4.212 4.212 0 01-.112-.448 4.004 4.004 0 01-.055-.495l-.001-.135.002-.136c.002-.069.007-.137.014-.206l-.016.342a3.521 3.521 0 01.368-1.564 3.225 3.225 0 01.32-.521l.03-.04c.095-.124.198-.24.307-.35l.004-.003L58.1 26.733a3.5 3.5 0 015.279 4.568l-.34.392L40.82 53.825l42.856.003a3.494 3.494 0 013.493 3.5z"/></svg>