<?xml version="1.0" encoding="utf-8"?><svg width="56" height="56" xmlns="http://www.w3.org/2000/svg" viewBox="0 0 56 56"><path d="M14.418 28.663c0-1.002.804-1.686 1.75-1.75l21.43.002-11.114-11.068a1.75 1.75 0 012.273-2.65l.196.17L43.07 27.421a1.751 1.751 0 01.515 1.241l-.001.068a1.778 1.778 0 01-.007.103l.008-.17a1.756 1.756 0 01-.345 1.042l-.015.02c-.047.062-.098.12-.153.175l-.002.001-14.117 14.059a1.75 1.75 0 01-2.64-2.284l.17-.196 11.11-11.066-21.428-.002a1.747 1.747 0 01-1.747-1.75z"/></svg>