<?xml version="1.0" encoding="utf-8"?><svg width="25" height="25" fill="none" xmlns="http://www.w3.org/2000/svg" viewBox="0 0 25 25"><path d="M4.73 20.278a1 1 0 010-1.414L18.874 4.722a.997.997 0 011.414 0 .997.997 0 010 1.414L6.145 20.278a1 1 0 01-1.414 0z" fill="url(#ipaint0_linear_1210_5725)"/><path d="M20.29 20.278a1 1 0 01-1.415 0L4.733 6.136a.997.997 0 010-1.414.997.997 0 011.414 0l14.142 14.142a1 1 0 010 1.414z" fill="url(#ipaint1_linear_1210_5725)"/><defs><linearGradient id="ipaint0_linear_1210_5725" x1="-2.73" y1="25.155" x2="17.238" y2="33.036" gradientUnits="userSpaceOnUse"><stop stop-color="#DABE83"/><stop offset="1" stop-color="#C9792F"/></linearGradient><linearGradient id="ipaint1_linear_1210_5725" x1="25.166" y1="27.739" x2="33.047" y2="7.771" gradientUnits="userSpaceOnUse"><stop stop-color="#DABE83"/><stop offset="1" stop-color="#C9792F"/></linearGradient></defs></svg>