<svg width="0" height="0" style="position:absolute"><symbol viewBox="0 0 25 25" id="arrow--down-usage" xmlns="http://www.w3.org/2000/svg"><path d="M5.134 8.47a.75.75 0 01.976-.073l.084.073 6.47 6.469 6.47-6.47a.75.75 0 01.976-.072l.084.073a.75.75 0 01.073.976l-.073.084-7 7a.75.75 0 01-.976.073l-.084-.073-7-7a.75.75 0 010-1.06z"/></symbol><symbol viewBox="0 0 24 24" id="arrow--right-usage" xmlns="http://www.w3.org/2000/svg"><path d="M7.97 19.53a.75.75 0 01-.073-.976l.073-.084L14.439 12l-6.47-6.47a.75.75 0 01-.072-.976l.073-.084a.75.75 0 01.976-.073l.084.073 7 7a.75.75 0 01.073.976l-.073.084-7 7a.75.75 0 01-1.06 0z"/></symbol><symbol viewBox="0 0 56 56" id="arrow-fat--down-usage" xmlns="http://www.w3.org/2000/svg"><path fill-rule="evenodd" clip-rule="evenodd" d="M7.684 21.117l19.15 19.15 19.15-19.15-4.1-4.1-15.05 15.05-15.05-15.05-4.1 4.1zm36.65 0l-17.5 17.5 17.5-17.5z"/></symbol><symbol viewBox="0 0 112 112" id="arrow-large--left-usage" xmlns="http://www.w3.org/2000/svg"><path d="M87.17 57.328c0 2.004-1.608 3.372-3.5 3.5l-42.86-.003L63.039 82.96a3.5 3.5 0 01-4.546 5.299l-.393-.338L29.866 59.81a3.507 3.507 0 01-.862-1.404 4.212 4.212 0 01-.112-.448 4.004 4.004 0 01-.055-.495l-.001-.135.002-.136c.002-.069.007-.137.014-.206l-.016.342a3.521 3.521 0 01.368-1.564 3.225 3.225 0 01.32-.521l.03-.04c.095-.124.198-.24.307-.35l.004-.003L58.1 26.733a3.5 3.5 0 015.279 4.568l-.34.392L40.82 53.825l42.856.003a3.494 3.494 0 013.493 3.5z"/></symbol><symbol viewBox="0 0 56 56" id="arrow-large--right-usage" xmlns="http://www.w3.org/2000/svg"><path d="M14.418 28.663c0-1.002.804-1.686 1.75-1.75l21.43.002-11.114-11.068a1.75 1.75 0 012.273-2.65l.196.17L43.07 27.421a1.751 1.751 0 01.515 1.241l-.001.068a1.778 1.778 0 01-.007.103l.008-.17a1.756 1.756 0 01-.345 1.042l-.015.02c-.047.062-.098.12-.153.175l-.002.001-14.117 14.059a1.75 1.75 0 01-2.64-2.284l.17-.196 11.11-11.066-21.428-.002a1.747 1.747 0 01-1.747-1.75z"/></symbol><symbol fill="none" viewBox="0 0 48 48" id="arrow-long--down-usage" xmlns="http://www.w3.org/2000/svg"><path d="M19.5 30l4.5 4.5 4.5-4.5-1.06-1.06-2.69 2.689V13.5h-1.5v18.129l-2.69-2.69L19.5 30z" fill="#DABE83"/><rect x=".5" y=".5" width="47" height="47" rx="23.5" stroke="#DABE83" stroke-opacity=".16"/></symbol><symbol fill="none" viewBox="0 0 56 56" id="arrown-usage" xmlns="http://www.w3.org/2000/svg"><path fill-rule="evenodd" clip-rule="evenodd" d="M7.684 21.117l19.15 19.15 19.15-19.15-4.1-4.1-15.05 15.05-15.05-15.05-4.1 4.1zm36.65 0l-17.5 17.5 17.5-17.5z" fill="url(#gpaint0_linear_2259_9209)"/><defs><linearGradient id="gpaint0_linear_2259_9209" x1="-7.503" y1="7.399" x2="76.382" y2="36.345" gradientUnits="userSpaceOnUse"><stop stop-color="#DABE83"/><stop offset="1" stop-color="#C9792F"/></linearGradient></defs></symbol><symbol fill="none" viewBox="0 0 17 16" id="checkbox-usage" xmlns="http://www.w3.org/2000/svg"><rect x="1.453" y=".5" width="15" height="15" rx="1.5" stroke="url(#hpaint0_linear_1210_3602)"/><defs><linearGradient id="hpaint0_linear_1210_3602" x1="-5.391" y1="-6.619" x2="32.177" y2="1.25" gradientUnits="userSpaceOnUse"><stop stop-color="#DABE83"/><stop offset="1" stop-color="#C9792F"/></linearGradient></defs></symbol><symbol fill="none" viewBox="0 0 25 25" id="cross-usage" xmlns="http://www.w3.org/2000/svg"><path d="M4.73 20.278a1 1 0 010-1.414L18.874 4.722a.997.997 0 011.414 0 .997.997 0 010 1.414L6.145 20.278a1 1 0 01-1.414 0z" fill="url(#ipaint0_linear_1210_5725)"/><path d="M20.29 20.278a1 1 0 01-1.415 0L4.733 6.136a.997.997 0 010-1.414.997.997 0 011.414 0l14.142 14.142a1 1 0 010 1.414z" fill="url(#ipaint1_linear_1210_5725)"/><defs><linearGradient id="ipaint0_linear_1210_5725" x1="-2.73" y1="25.155" x2="17.238" y2="33.036" gradientUnits="userSpaceOnUse"><stop stop-color="#DABE83"/><stop offset="1" stop-color="#C9792F"/></linearGradient><linearGradient id="ipaint1_linear_1210_5725" x1="25.166" y1="27.739" x2="33.047" y2="7.771" gradientUnits="userSpaceOnUse"><stop stop-color="#DABE83"/><stop offset="1" stop-color="#C9792F"/></linearGradient></defs></symbol></svg>